# xmcd
#
# Track frame offsets:
#	150
#	23162
#	43762
#	67452
#	85925
#	108415
#	124750
#	143260
#	165317
#	188150
#
# Disc length: 2733 seconds
#
# Revision: 2
# Processed by: cddbd v1.5.2PL0 Copyright (c) Steve Scherf et al.
# Submitted via: EasyCDDAExtractor 15.3.0.1
#
DISCID=820aab0a
DTITLE=Emmanuel - Ese Soy Yo
DYEAR=1992
DGENRE=Latin
TTITLE0=Ese Soy Yo
TTITLE1=Donde Quiera
TTITLE2=Y Ahora Se Me Pasan
TTITLE3=Si No Tienes Amor
TTITLE4=Donde Estara
TTITLE5=Corazon
TTITLE6=Cuando Dije Que Adios
TTITLE7=Que Vivan Las Mujeres
TTITLE8=Una Vez Mas
TTITLE9=Magdalena
EXTD=
EXTT0=
EXTT1=
EXTT2=
EXTT3=
EXTT4=
EXTT5=
EXTT6=
EXTT7=
EXTT8=
EXTT9=
PLAYORDER=
